<mxfile host="Electron" modified="2023-12-25T22:05:39.856Z" agent="Mozilla/5.0 (Windows NT 10.0; Win64; x64) AppleWebKit/537.36 (KHTML, like Gecko) draw.io/22.1.2 Chrome/114.0.5735.289 Electron/25.9.4 Safari/537.36" etag="83UK3ab1h7aI9IOCX4o4" version="22.1.2" type="device">
  <diagram name="Page-1" id="5JJXpEa-IAsGcOUEe2H3">
    <mxGraphModel dx="1418" dy="868" grid="1" gridSize="10" guides="1" tooltips="1" connect="1" arrows="1" fold="1" page="1" pageScale="1" pageWidth="1169" pageHeight="827" math="0" shadow="0">
      <root>
        <mxCell id="0" />
        <mxCell id="1" parent="0" />
        <mxCell id="JJE_AkTOqCMn1s8XkAAV-48" value="" style="rounded=1;whiteSpace=wrap;html=1;" parent="1" vertex="1">
          <mxGeometry x="330" y="100" width="510" height="351" as="geometry" />
        </mxCell>
        <mxCell id="JJE_AkTOqCMn1s8XkAAV-25" value="" style="rounded=1;whiteSpace=wrap;html=1;" parent="1" vertex="1">
          <mxGeometry x="639" y="161" width="151" height="270" as="geometry" />
        </mxCell>
        <mxCell id="JJE_AkTOqCMn1s8XkAAV-1" value="Initiée" style="rounded=1;whiteSpace=wrap;html=1;" parent="1" vertex="1">
          <mxGeometry x="230" y="200" width="90" height="40" as="geometry" />
        </mxCell>
        <mxCell id="JJE_AkTOqCMn1s8XkAAV-3" value="" style="ellipse;html=1;shape=startState;fillColor=#000000;strokeColor=none;" parent="1" vertex="1">
          <mxGeometry x="120" y="205" width="30" height="30" as="geometry" />
        </mxCell>
        <mxCell id="JJE_AkTOqCMn1s8XkAAV-4" value="" style="edgeStyle=orthogonalEdgeStyle;html=1;verticalAlign=bottom;endArrow=open;endSize=8;strokeColor=default;rounded=0;entryX=0;entryY=0.5;entryDx=0;entryDy=0;" parent="1" source="JJE_AkTOqCMn1s8XkAAV-3" target="JJE_AkTOqCMn1s8XkAAV-1" edge="1">
          <mxGeometry relative="1" as="geometry">
            <mxPoint x="95" y="300" as="targetPoint" />
          </mxGeometry>
        </mxCell>
        <mxCell id="JJE_AkTOqCMn1s8XkAAV-8" value="Abandonnée" style="rounded=1;whiteSpace=wrap;html=1;" parent="1" vertex="1">
          <mxGeometry x="325" y="536" width="100" height="40" as="geometry" />
        </mxCell>
        <mxCell id="JJE_AkTOqCMn1s8XkAAV-9" value="Annulée" style="rounded=1;whiteSpace=wrap;html=1;" parent="1" vertex="1">
          <mxGeometry x="745" y="536" width="90" height="40" as="geometry" />
        </mxCell>
        <mxCell id="JJE_AkTOqCMn1s8XkAAV-10" value="Cloturée" style="rounded=1;whiteSpace=wrap;html=1;" parent="1" vertex="1">
          <mxGeometry x="670" y="200" width="90" height="40" as="geometry" />
        </mxCell>
        <mxCell id="JJE_AkTOqCMn1s8XkAAV-11" value="En cours" style="rounded=1;whiteSpace=wrap;html=1;" parent="1" vertex="1">
          <mxGeometry x="435" y="200" width="90" height="40" as="geometry" />
        </mxCell>
        <mxCell id="JJE_AkTOqCMn1s8XkAAV-13" value="Prendre &lt;br&gt;un chariot" style="text;html=1;align=center;verticalAlign=middle;resizable=0;points=[];autosize=1;strokeColor=none;fillColor=none;" parent="1" vertex="1">
          <mxGeometry x="150" y="175" width="80" height="40" as="geometry" />
        </mxCell>
        <mxCell id="JJE_AkTOqCMn1s8XkAAV-14" value="" style="endArrow=open;html=1;rounded=0;exitX=1;exitY=0.5;exitDx=0;exitDy=0;entryX=0;entryY=0.5;entryDx=0;entryDy=0;endFill=0;" parent="1" source="JJE_AkTOqCMn1s8XkAAV-1" target="JJE_AkTOqCMn1s8XkAAV-11" edge="1">
          <mxGeometry width="50" height="50" relative="1" as="geometry">
            <mxPoint x="390" y="190" as="sourcePoint" />
            <mxPoint x="440" y="140" as="targetPoint" />
          </mxGeometry>
        </mxCell>
        <mxCell id="JJE_AkTOqCMn1s8XkAAV-15" value="Enregistrer une&lt;br&gt;vente au stand" style="text;html=1;align=center;verticalAlign=middle;resizable=0;points=[];autosize=1;strokeColor=none;fillColor=none;" parent="1" vertex="1">
          <mxGeometry x="320" y="175" width="110" height="40" as="geometry" />
        </mxCell>
        <mxCell id="JJE_AkTOqCMn1s8XkAAV-16" value="&lt;font color=&quot;#00cc00&quot;&gt;[1ère]&lt;/font&gt;" style="text;html=1;align=center;verticalAlign=middle;resizable=0;points=[];autosize=1;strokeColor=none;fillColor=none;" parent="1" vertex="1">
          <mxGeometry x="350" y="225" width="50" height="30" as="geometry" />
        </mxCell>
        <mxCell id="JJE_AkTOqCMn1s8XkAAV-17" value="" style="curved=1;endArrow=open;html=1;rounded=0;exitX=1;exitY=0.25;exitDx=0;exitDy=0;entryX=0.75;entryY=0;entryDx=0;entryDy=0;endFill=0;" parent="1" source="JJE_AkTOqCMn1s8XkAAV-11" target="JJE_AkTOqCMn1s8XkAAV-11" edge="1">
          <mxGeometry width="50" height="50" relative="1" as="geometry">
            <mxPoint x="540" y="220" as="sourcePoint" />
            <mxPoint x="590" y="170" as="targetPoint" />
            <Array as="points">
              <mxPoint x="560" y="210" />
              <mxPoint x="525" y="160" />
            </Array>
          </mxGeometry>
        </mxCell>
        <mxCell id="JJE_AkTOqCMn1s8XkAAV-18" value="Enregistrer une&lt;br&gt;vente au stand" style="text;html=1;align=center;verticalAlign=middle;resizable=0;points=[];autosize=1;strokeColor=none;fillColor=none;" parent="1" vertex="1">
          <mxGeometry x="525" y="145" width="110" height="40" as="geometry" />
        </mxCell>
        <mxCell id="JJE_AkTOqCMn1s8XkAAV-19" value="" style="endArrow=open;html=1;rounded=0;entryX=0;entryY=0.5;entryDx=0;entryDy=0;endFill=0;exitX=1;exitY=0.5;exitDx=0;exitDy=0;" parent="1" source="JJE_AkTOqCMn1s8XkAAV-11" target="JJE_AkTOqCMn1s8XkAAV-10" edge="1">
          <mxGeometry width="50" height="50" relative="1" as="geometry">
            <mxPoint x="610" y="240" as="sourcePoint" />
            <mxPoint x="575" y="230" as="targetPoint" />
          </mxGeometry>
        </mxCell>
        <mxCell id="JJE_AkTOqCMn1s8XkAAV-20" value="[ &lt;font color=&quot;#ff0000&quot;&gt;&lt;strike&gt;aucun problème&lt;/strike&gt;&lt;/font&gt;&lt;br&gt;&lt;font color=&quot;#00cc00&quot;&gt;aucune erreur&lt;/font&gt;]" style="text;html=1;align=center;verticalAlign=middle;resizable=0;points=[];autosize=1;strokeColor=none;fillColor=none;" parent="1" vertex="1">
          <mxGeometry x="520" y="216" width="120" height="40" as="geometry" />
        </mxCell>
        <mxCell id="JJE_AkTOqCMn1s8XkAAV-21" value="Cloturer vente" style="text;html=1;align=center;verticalAlign=middle;resizable=0;points=[];autosize=1;strokeColor=none;fillColor=none;" parent="1" vertex="1">
          <mxGeometry x="539" y="193" width="100" height="30" as="geometry" />
        </mxCell>
        <mxCell id="JJE_AkTOqCMn1s8XkAAV-22" value="" style="endArrow=open;html=1;rounded=0;endFill=0;exitX=0.5;exitY=1;exitDx=0;exitDy=0;entryX=0.5;entryY=0;entryDx=0;entryDy=0;" parent="1" source="JJE_AkTOqCMn1s8XkAAV-11" target="JJE_AkTOqCMn1s8XkAAV-23" edge="1">
          <mxGeometry width="50" height="50" relative="1" as="geometry">
            <mxPoint x="535" y="230" as="sourcePoint" />
            <mxPoint x="480" y="300" as="targetPoint" />
          </mxGeometry>
        </mxCell>
        <mxCell id="JJE_AkTOqCMn1s8XkAAV-23" value="Suspendue" style="rounded=1;whiteSpace=wrap;html=1;" parent="1" vertex="1">
          <mxGeometry x="434.5" y="370" width="90" height="40" as="geometry" />
        </mxCell>
        <mxCell id="JJE_AkTOqCMn1s8XkAAV-24" value="[&lt;font style=&quot;&quot; color=&quot;#ff0000&quot;&gt;&lt;strike&gt;problème&lt;br&gt;survenu&lt;/strike&gt;&lt;/font&gt;&lt;br&gt;&lt;font color=&quot;#00cc00&quot;&gt;verification&lt;br&gt;en erreur&lt;/font&gt;]" style="text;html=1;align=center;verticalAlign=middle;resizable=0;points=[];autosize=1;strokeColor=none;fillColor=none;" parent="1" vertex="1">
          <mxGeometry x="490" y="251" width="80" height="70" as="geometry" />
        </mxCell>
        <mxCell id="JJE_AkTOqCMn1s8XkAAV-26" value="" style="endArrow=open;html=1;rounded=0;endFill=0;exitX=0.25;exitY=1;exitDx=0;exitDy=0;entryX=0.5;entryY=0;entryDx=0;entryDy=0;" parent="1" target="JJE_AkTOqCMn1s8XkAAV-27" edge="1" source="JJE_AkTOqCMn1s8XkAAV-25">
          <mxGeometry width="50" height="50" relative="1" as="geometry">
            <mxPoint x="830" y="380" as="sourcePoint" />
            <mxPoint x="677" y="541" as="targetPoint" />
            <Array as="points">
              <mxPoint x="677" y="501" />
              <mxPoint x="630" y="501" />
            </Array>
          </mxGeometry>
        </mxCell>
        <mxCell id="JJE_AkTOqCMn1s8XkAAV-27" value="Payée" style="rounded=1;whiteSpace=wrap;html=1;" parent="1" vertex="1">
          <mxGeometry x="585" y="534" width="90" height="40" as="geometry" />
        </mxCell>
        <mxCell id="JJE_AkTOqCMn1s8XkAAV-28" value="[paiement&lt;br&gt;accepté]" style="text;html=1;align=center;verticalAlign=middle;resizable=0;points=[];autosize=1;strokeColor=none;fillColor=none;" parent="1" vertex="1">
          <mxGeometry x="565" y="470" width="80" height="40" as="geometry" />
        </mxCell>
        <mxCell id="JJE_AkTOqCMn1s8XkAAV-29" value="Payer ses&lt;br&gt;achats" style="text;html=1;align=center;verticalAlign=middle;resizable=0;points=[];autosize=1;strokeColor=none;fillColor=none;" parent="1" vertex="1">
          <mxGeometry x="525" y="501" width="80" height="40" as="geometry" />
        </mxCell>
        <mxCell id="JJE_AkTOqCMn1s8XkAAV-30" value="Suspendre&lt;br&gt;vente" style="text;html=1;align=center;verticalAlign=middle;resizable=0;points=[];autosize=1;strokeColor=none;fillColor=none;" parent="1" vertex="1">
          <mxGeometry x="490" y="320" width="80" height="40" as="geometry" />
        </mxCell>
        <mxCell id="JJE_AkTOqCMn1s8XkAAV-31" value="" style="endArrow=open;html=1;rounded=0;endFill=0;exitX=1;exitY=0.5;exitDx=0;exitDy=0;entryX=0;entryY=0.5;entryDx=0;entryDy=0;" parent="1" source="JJE_AkTOqCMn1s8XkAAV-23" target="JJE_AkTOqCMn1s8XkAAV-33" edge="1">
          <mxGeometry width="50" height="50" relative="1" as="geometry">
            <mxPoint x="490" y="250" as="sourcePoint" />
            <mxPoint x="590" y="390" as="targetPoint" />
          </mxGeometry>
        </mxCell>
        <mxCell id="JJE_AkTOqCMn1s8XkAAV-32" value="Enregistrer un&lt;br&gt;avertissement" style="text;html=1;align=center;verticalAlign=middle;resizable=0;points=[];autosize=1;strokeColor=none;fillColor=none;" parent="1" vertex="1">
          <mxGeometry x="530" y="400" width="100" height="40" as="geometry" />
        </mxCell>
        <mxCell id="JJE_AkTOqCMn1s8XkAAV-33" value="Cloturée avec&lt;br&gt;avertissement" style="rounded=1;whiteSpace=wrap;html=1;" parent="1" vertex="1">
          <mxGeometry x="670" y="370" width="90" height="40" as="geometry" />
        </mxCell>
        <mxCell id="JJE_AkTOqCMn1s8XkAAV-34" value="Clôturée" style="rounded=1;whiteSpace=wrap;html=1;" parent="1" vertex="1">
          <mxGeometry x="639" y="161" width="90" height="30" as="geometry" />
        </mxCell>
        <mxCell id="JJE_AkTOqCMn1s8XkAAV-36" value="[paiement non&lt;br&gt;accepté]" style="text;html=1;align=center;verticalAlign=middle;resizable=0;points=[];autosize=1;strokeColor=none;fillColor=none;" parent="1" vertex="1">
          <mxGeometry x="800" y="461" width="100" height="40" as="geometry" />
        </mxCell>
        <mxCell id="JJE_AkTOqCMn1s8XkAAV-37" value="Annuler&lt;br&gt;vente" style="text;html=1;align=center;verticalAlign=middle;resizable=0;points=[];autosize=1;strokeColor=none;fillColor=none;" parent="1" vertex="1">
          <mxGeometry x="830" y="501" width="60" height="40" as="geometry" />
        </mxCell>
        <mxCell id="JJE_AkTOqCMn1s8XkAAV-38" value="" style="endArrow=open;html=1;rounded=0;endFill=0;exitX=0.75;exitY=1;exitDx=0;exitDy=0;entryX=0.5;entryY=0;entryDx=0;entryDy=0;" parent="1" target="JJE_AkTOqCMn1s8XkAAV-9" edge="1" source="JJE_AkTOqCMn1s8XkAAV-25">
          <mxGeometry width="50" height="50" relative="1" as="geometry">
            <mxPoint x="952.25" y="461" as="sourcePoint" />
            <mxPoint x="800" y="521" as="targetPoint" />
            <Array as="points">
              <mxPoint x="752" y="501" />
              <mxPoint x="790" y="501" />
            </Array>
          </mxGeometry>
        </mxCell>
        <mxCell id="JJE_AkTOqCMn1s8XkAAV-40" value="" style="endArrow=open;html=1;rounded=0;endFill=0;exitX=0.5;exitY=1;exitDx=0;exitDy=0;entryX=0.5;entryY=0;entryDx=0;entryDy=0;" parent="1" source="JJE_AkTOqCMn1s8XkAAV-27" target="ZsgVuBnABOa3-sqC6xgy-7" edge="1">
          <mxGeometry width="50" height="50" relative="1" as="geometry">
            <mxPoint x="490" y="621" as="sourcePoint" />
            <mxPoint x="630" y="601" as="targetPoint" />
            <Array as="points">
              <mxPoint x="630" y="591" />
              <mxPoint x="570" y="591" />
            </Array>
          </mxGeometry>
        </mxCell>
        <mxCell id="JJE_AkTOqCMn1s8XkAAV-43" value="" style="endArrow=open;html=1;rounded=0;endFill=0;entryX=1;entryY=0.5;entryDx=0;entryDy=0;exitX=0.5;exitY=1;exitDx=0;exitDy=0;" parent="1" source="JJE_AkTOqCMn1s8XkAAV-9" target="ZsgVuBnABOa3-sqC6xgy-7" edge="1">
          <mxGeometry width="50" height="50" relative="1" as="geometry">
            <mxPoint x="762" y="645" as="sourcePoint" />
            <mxPoint x="752" y="636" as="targetPoint" />
            <Array as="points">
              <mxPoint x="790" y="651" />
            </Array>
          </mxGeometry>
        </mxCell>
        <mxCell id="JJE_AkTOqCMn1s8XkAAV-45" value="" style="endArrow=open;html=1;rounded=0;endFill=0;entryX=0.5;entryY=0;entryDx=0;entryDy=0;" parent="1" target="JJE_AkTOqCMn1s8XkAAV-8" edge="1">
          <mxGeometry width="50" height="50" relative="1" as="geometry">
            <mxPoint x="375" y="451" as="sourcePoint" />
            <mxPoint x="340" y="400" as="targetPoint" />
          </mxGeometry>
        </mxCell>
        <mxCell id="JJE_AkTOqCMn1s8XkAAV-47" value="" style="endArrow=open;html=1;rounded=0;endFill=0;exitX=0.5;exitY=1;exitDx=0;exitDy=0;entryX=0;entryY=0.5;entryDx=0;entryDy=0;" parent="1" source="JJE_AkTOqCMn1s8XkAAV-8" target="ZsgVuBnABOa3-sqC6xgy-7" edge="1">
          <mxGeometry width="50" height="50" relative="1" as="geometry">
            <mxPoint x="450" y="576" as="sourcePoint" />
            <mxPoint x="460" y="641" as="targetPoint" />
            <Array as="points">
              <mxPoint x="375" y="651" />
            </Array>
          </mxGeometry>
        </mxCell>
        <mxCell id="JJE_AkTOqCMn1s8XkAAV-49" value="Abandonnable" style="rounded=1;whiteSpace=wrap;html=1;" parent="1" vertex="1">
          <mxGeometry x="330" y="100" width="100" height="50" as="geometry" />
        </mxCell>
        <mxCell id="JJE_AkTOqCMn1s8XkAAV-50" value="Enregistrer vente&lt;br&gt;abandonnée" style="text;html=1;align=center;verticalAlign=middle;resizable=0;points=[];autosize=1;strokeColor=none;fillColor=none;" parent="1" vertex="1">
          <mxGeometry x="380" y="480" width="110" height="40" as="geometry" />
        </mxCell>
        <mxCell id="ZsgVuBnABOa3-sqC6xgy-6" value="" style="ellipse;whiteSpace=wrap;html=1;aspect=fixed;fillColor=#000000;" parent="1" vertex="1">
          <mxGeometry x="560" y="641" width="20" height="20" as="geometry" />
        </mxCell>
        <mxCell id="ZsgVuBnABOa3-sqC6xgy-7" value="" style="ellipse;whiteSpace=wrap;html=1;aspect=fixed;fillColor=none;" parent="1" vertex="1">
          <mxGeometry x="555" y="636" width="30" height="30" as="geometry" />
        </mxCell>
        <mxCell id="9qqnuLPJ_KJFoV5hENaE-1" value="&lt;font style=&quot;&quot; color=&quot;#ff0000&quot;&gt;&lt;strike&gt;[ client abandonne&lt;br&gt;le chariot ]&lt;/strike&gt;&lt;/font&gt;" style="text;html=1;align=center;verticalAlign=middle;resizable=0;points=[];autosize=1;strokeColor=none;fillColor=none;" vertex="1" parent="1">
          <mxGeometry x="245" y="480" width="120" height="40" as="geometry" />
        </mxCell>
      </root>
    </mxGraphModel>
  </diagram>
</mxfile>
